<svg xmlns="http://www.w3.org/2000/svg" viewBox="0 0 24 24"><path d="M19 12.9v-1.8a.1.1 0 0 0-.1-.1H5.1a.1.1 0 0 0-.1.1v1.8a.1.1 0 0 0 .1.1h13.8a.1.1 0 0 0 .1-.1zm-7.07 2.17l-3.76 3.76a.1.1 0 0 0 .071.17h2.66a.1.1 0 0 1 .1.1v2.8a.1.1 0 0 0 .1.1h1.8a.1.1 0 0 0 .1-.1v-2.8a.1.1 0 0 1 .1-.1h2.66c.1 0 .134-.108.07-.17l-3.76-3.76c-.04-.038-.103-.038-.142.001zm.14-6.14l3.76-3.76a.1.1 0 0 0-.071-.17H13.1a.1.1 0 0 1-.1-.1V2.1a.1.1 0 0 0-.1-.1h-1.8a.1.1 0 0 0-.1.1v2.8a.1.1 0 0 1-.1.1H8.24a.1.1 0 0 0-.07.171l3.76 3.76c.038.038.102.038.14-.001z"/></svg>