<svg xmlns="http://www.w3.org/2000/svg" viewBox="0 0 24 24"><path d="M14.55 12l2-2-.7-.7-5 5a1.43 1.43 0 0 1-2.12 0 1.42 1.42 0 0 1 0-2.11L14 6.82a3.75 3.75 0 0 1 2.07-1.36 2.69 2.69 0 0 1 2.06 1.19A2.54 2.54 0 0 1 18.75 8a2.45 2.45 0 0 1-.42 1.46 9 9 0 0 1-1.15 1.33l-.9.9a4 4 0 0 1 1.2.2l.4-.4A8.88 8.88 0 0 0 19.17 10a3.31 3.31 0 0 0 .58-2.08A3.53 3.53 0 0 0 19 6.05a3.54 3.54 0 0 0-3-1.59 4.42 4.42 0 0 0-2.65 1.6L8 11.4a2.88 2.88 0 0 0-.78 1.84A2.28 2.28 0 0 0 8 15a2.41 2.41 0 0 0 3.53 0l.6-.6A4.37 4.37 0 0 1 14.55 12zm-5.13 5.72a3.52 3.52 0 0 1-4-2.42c-.7-2 .94-3.66 2.4-5.1l4.48-4.45-.7-.75L7.1 9.5c-1.6 1.57-3.56 3.5-2.63 6.14a5 5 0 0 0 1.18 1.85 4.14 4.14 0 0 0 4 1.21 5.92 5.92 0 0 0 2.38-1.41 4.23 4.23 0 0 1-.2-1.18 5.73 5.73 0 0 1-2.42 1.62zm6.76-5.33A3.58 3.58 0 1 0 19.76 16a3.58 3.58 0 0 0-3.58-3.61zm1.4 4.46l-.64.64-.88-.88-.88.88-.64-.64.88-.88-.88-.88.64-.64.88.88.88-.88.64.64-.88.88z"/></svg>