<svg xmlns="http://www.w3.org/2000/svg" viewBox="0 0 24 24"><path d="M7.278 5.1a.1.1 0 0 1 .1-.1h5.182c1.637 0 2.573.175 3.41.663.916.546 1.482 1.56 1.482 2.65 0 1.19-.532 2.042-1.662 2.643-.07.037-.07.134.001.17 1.38.71 1.973 1.65 1.973 3.092 0 1.228-.487 2.28-1.345 2.924-.84.64-1.755.856-3.606.856H7.378a.1.1 0 0 1-.1-.1V5.1zm5.653 4.948c1.052 0 1.598-.43 1.598-1.286 0-.838-.546-1.267-1.598-1.267h-2.687a.1.1 0 0 0-.1.1v2.353a.1.1 0 0 0 .1.1h2.687zm-.04 5.457c1.228 0 1.89-.545 1.89-1.58s-.663-1.58-1.89-1.58h-2.648a.1.1 0 0 0-.1.1v2.958a.1.1 0 0 0 .1.1h2.648z"/></svg>