<svg xmlns="http://www.w3.org/2000/svg" viewBox="0 0 24 24"><path d="M3 3.1v17.8a.1.1 0 0 0 .1.1h17.8a.1.1 0 0 0 .1-.1V3.1a.1.1 0 0 0-.1-.1H3.1a.1.1 0 0 0-.1.1zM5.1 5h5.8a.1.1 0 0 1 .1.1v5.8a.1.1 0 0 1-.1.1H5.1a.1.1 0 0 1-.1-.1V5.1a.1.1 0 0 1 .1-.1zM5 18.9v-5.8a.1.1 0 0 1 .1-.1h5.8a.1.1 0 0 1 .1.1v5.8a.1.1 0 0 1-.1.1H5.1a.1.1 0 0 1-.1-.1zm13.9.1h-5.8a.1.1 0 0 1-.1-.1v-5.8a.1.1 0 0 1 .1-.1h5.8a.1.1 0 0 1 .1.1v5.8a.1.1 0 0 1-.1.1zM13 10.9V5.1a.1.1 0 0 1 .1-.1h5.8a.1.1 0 0 1 .1.1v5.8a.1.1 0 0 1-.1.1h-5.8a.1.1 0 0 1-.1-.1z"/></svg>