<svg xmlns="http://www.w3.org/2000/svg" xmlns:xlink="http://www.w3.org/1999/xlink" viewBox="0 0 24 24"><path d="M19 3.1v1.8a.1.1 0 0 0 .1.1h1.8a.1.1 0 0 0 .1-.1V3.1a.1.1 0 0 0-.1-.1h-1.8a.1.1 0 0 0-.1.1zM15.1 5h1.8a.1.1 0 0 0 .1-.1V3.1a.1.1 0 0 0-.1-.1h-1.8a.1.1 0 0 0-.1.1v1.8a.1.1 0 0 0 .1.1zm-8 0h1.8a.1.1 0 0 0 .1-.1V3.1a.1.1 0 0 0-.1-.1H7.1a.1.1 0 0 0-.1.1v1.8a.1.1 0 0 0 .1.1zm-4 16h1.8a.1.1 0 0 0 .1-.1V3.1a.1.1 0 0 0-.1-.1H3.1a.1.1 0 0 0-.1.1v17.8a.1.1 0 0 0 .1.1zm16-12h1.8a.1.1 0 0 0 .1-.1V7.1a.1.1 0 0 0-.1-.1h-1.8a.1.1 0 0 0-.1.1v1.8a.1.1 0 0 0 .1.1z"/><use xlink:href="#B"/><use xlink:href="#B" x="-4"/><use xlink:href="#C"/><use xlink:href="#C" y="8"/><use xlink:href="#B" x="-8"/><use xlink:href="#B" y="4"/><use xlink:href="#B" y="8"/><use xlink:href="#B" x="-4" y="8"/><path d="M11.1 5h1.8a.1.1 0 0 0 .1-.1V3.1a.1.1 0 0 0-.1-.1h-1.8a.1.1 0 0 0-.1.1v1.8a.1.1 0 0 0 .1.1zm0 4h1.8a.1.1 0 0 0 .1-.1V7.1a.1.1 0 0 0-.1-.1h-1.8a.1.1 0 0 0-.1.1v1.8a.1.1 0 0 0 .1.1z"/><use xlink:href="#B" x="-8" y="4"/><use xlink:href="#B" x="-8" y="8"/><defs><path id="B" d="M19.1 13h1.8a.1.1 0 0 0 .1-.1v-1.8a.1.1 0 0 0-.1-.1h-1.8a.1.1 0 0 0-.1.1v1.8a.1.1 0 0 0 .1.1z"/><path id="C" d="M7.1 13h1.8a.1.1 0 0 0 .1-.1v-1.8a.1.1 0 0 0-.1-.1H7.1a.1.1 0 0 0-.1.1v1.8a.1.1 0 0 0 .1.1z"/></defs></svg>