<svg xmlns="http://www.w3.org/2000/svg" xmlns:xlink="http://www.w3.org/1999/xlink" viewBox="0 0 24 24"><path d="M12.9 3h-1.8a.1.1 0 0 0-.1.1v7.8a.1.1 0 0 1-.1.1H3.1a.1.1 0 0 0-.1.1v1.8a.1.1 0 0 0 .1.1h7.8a.1.1 0 0 1 .1.1v7.8a.1.1 0 0 0 .1.1h1.8a.1.1 0 0 0 .1-.1v-7.8a.1.1 0 0 1 .1-.1h7.8a.1.1 0 0 0 .1-.1v-1.8a.1.1 0 0 0-.1-.1h-7.8a.1.1 0 0 1-.1-.1V3.1a.1.1 0 0 0-.1-.1zm-8 0H3.1a.1.1 0 0 0-.1.1v1.8a.1.1 0 0 0 .1.1h1.8a.1.1 0 0 0 .1-.1V3.1a.1.1 0 0 0-.1-.1zm0 4H3.1a.1.1 0 0 0-.1.1v1.8a.1.1 0 0 0 .1.1h1.8a.1.1 0 0 0 .1-.1V7.1a.1.1 0 0 0-.1-.1zm4-4H7.1a.1.1 0 0 0-.1.1v1.8a.1.1 0 0 0 .1.1h1.8a.1.1 0 0 0 .1-.1V3.1a.1.1 0 0 0-.1-.1zm8 0h-1.8a.1.1 0 0 0-.1.1v1.8a.1.1 0 0 0 .1.1h1.8a.1.1 0 0 0 .1-.1V3.1a.1.1 0 0 0-.1-.1zm2.1.1v1.8a.1.1 0 0 0 .1.1h1.8a.1.1 0 0 0 .1-.1V3.1a.1.1 0 0 0-.1-.1h-1.8a.1.1 0 0 0-.1.1zm.1 5.9h1.8a.1.1 0 0 0 .1-.1V7.1a.1.1 0 0 0-.1-.1h-1.8a.1.1 0 0 0-.1.1v1.8a.1.1 0 0 0 .1.1z"/><use xlink:href="#B"/><use xlink:href="#B" y="-4"/><use xlink:href="#B" x="-4"/><path d="M7.1 21h1.8a.1.1 0 0 0 .1-.1v-1.8a.1.1 0 0 0-.1-.1H7.1a.1.1 0 0 0-.1.1v1.8a.1.1 0 0 0 .1.1z"/><use xlink:href="#C"/><use xlink:href="#C" y="-4"/><defs><path id="B" d="M19.1 21h1.8a.1.1 0 0 0 .1-.1v-1.8a.1.1 0 0 0-.1-.1h-1.8a.1.1 0 0 0-.1.1v1.8a.1.1 0 0 0 .1.1z"/><path id="C" d="M3.1 21h1.8a.1.1 0 0 0 .1-.1v-1.8a.1.1 0 0 0-.1-.1H3.1a.1.1 0 0 0-.1.1v1.8a.1.1 0 0 0 .1.1z"/></defs></svg>