<svg xmlns="http://www.w3.org/2000/svg" viewBox="0 0 24 24"><path d="M19.1 21h1.8a.1.1 0 0 0 .1-.1v-1.8a.1.1 0 0 0-.1-.1h-1.8a.1.1 0 0 0-.1.1v1.8a.1.1 0 0 0 .1.1zm0-4h1.8a.1.1 0 0 0 .1-.1v-1.8a.1.1 0 0 0-.1-.1h-1.8a.1.1 0 0 0-.1.1v1.8a.1.1 0 0 0 .1.1zm0-8h1.8a.1.1 0 0 0 .1-.1V7.1a.1.1 0 0 0-.1-.1h-1.8a.1.1 0 0 0-.1.1v1.8a.1.1 0 0 0 .1.1zM3 3.1v1.8a.1.1 0 0 0 .1.1h17.8a.1.1 0 0 0 .1-.1V3.1a.1.1 0 0 0-.1-.1H3.1a.1.1 0 0 0-.1.1zM15.1 21h1.8a.1.1 0 0 0 .1-.1v-1.8a.1.1 0 0 0-.1-.1h-1.8a.1.1 0 0 0-.1.1v1.8a.1.1 0 0 0 .1.1zm-4 0h1.8a.1.1 0 0 0 .1-.1v-1.8a.1.1 0 0 0-.1-.1h-1.8a.1.1 0 0 0-.1.1v1.8a.1.1 0 0 0 .1.1zm0-4h1.8a.1.1 0 0 0 .1-.1v-1.8a.1.1 0 0 0-.1-.1h-1.8a.1.1 0 0 0-.1.1v1.8a.1.1 0 0 0 .1.1zm0-8h1.8a.1.1 0 0 0 .1-.1V7.1a.1.1 0 0 0-.1-.1h-1.8a.1.1 0 0 0-.1.1v1.8a.1.1 0 0 0 .1.1zm-8 0h1.8a.1.1 0 0 0 .1-.1V7.1a.1.1 0 0 0-.1-.1H3.1a.1.1 0 0 0-.1.1v1.8a.1.1 0 0 0 .1.1zm8 4h1.8a.1.1 0 0 0 .1-.1v-1.8a.1.1 0 0 0-.1-.1h-1.8a.1.1 0 0 0-.1.1v1.8a.1.1 0 0 0 .1.1zm-4 8h1.8a.1.1 0 0 0 .1-.1v-1.8a.1.1 0 0 0-.1-.1H7.1a.1.1 0 0 0-.1.1v1.8a.1.1 0 0 0 .1.1zm-4 0h1.8a.1.1 0 0 0 .1-.1v-1.8a.1.1 0 0 0-.1-.1H3.1a.1.1 0 0 0-.1.1v1.8a.1.1 0 0 0 .1.1zm0-4h1.8a.1.1 0 0 0 .1-.1v-1.8a.1.1 0 0 0-.1-.1H3.1a.1.1 0 0 0-.1.1v1.8a.1.1 0 0 0 .1.1zm16-4h1.8a.1.1 0 0 0 .1-.1v-1.8a.1.1 0 0 0-.1-.1h-1.8a.1.1 0 0 0-.1.1v1.8a.1.1 0 0 0 .1.1zm-4 0h1.8a.1.1 0 0 0 .1-.1v-1.8a.1.1 0 0 0-.1-.1h-1.8a.1.1 0 0 0-.1.1v1.8a.1.1 0 0 0 .1.1zm-8 0h1.8a.1.1 0 0 0 .1-.1v-1.8a.1.1 0 0 0-.1-.1H7.1a.1.1 0 0 0-.1.1v1.8a.1.1 0 0 0 .1.1zm-4 0h1.8a.1.1 0 0 0 .1-.1v-1.8a.1.1 0 0 0-.1-.1H3.1a.1.1 0 0 0-.1.1v1.8a.1.1 0 0 0 .1.1z"/></svg>