<svg xmlns="http://www.w3.org/2000/svg" viewBox="0 0 24 24"><path d="M3.1 5h1.8a.1.1 0 0 0 .1-.1V3.1a.1.1 0 0 0-.1-.1H3.1a.1.1 0 0 0-.1.1v1.8a.1.1 0 0 0 .1.1zm0 4h1.8a.1.1 0 0 0 .1-.1V7.1a.1.1 0 0 0-.1-.1H3.1a.1.1 0 0 0-.1.1v1.8a.1.1 0 0 0 .1.1zm0 8h1.8a.1.1 0 0 0 .1-.1v-1.8a.1.1 0 0 0-.1-.1H3.1a.1.1 0 0 0-.1.1v1.8a.1.1 0 0 0 .1.1zm4-12h1.8a.1.1 0 0 0 .1-.1V3.1a.1.1 0 0 0-.1-.1H7.1a.1.1 0 0 0-.1.1v1.8a.1.1 0 0 0 .1.1zm4 0h1.8a.1.1 0 0 0 .1-.1V3.1a.1.1 0 0 0-.1-.1h-1.8a.1.1 0 0 0-.1.1v1.8a.1.1 0 0 0 .1.1zm0 4h1.8a.1.1 0 0 0 .1-.1V7.1a.1.1 0 0 0-.1-.1h-1.8a.1.1 0 0 0-.1.1v1.8a.1.1 0 0 0 .1.1zm0 8h1.8a.1.1 0 0 0 .1-.1v-1.8a.1.1 0 0 0-.1-.1h-1.8a.1.1 0 0 0-.1.1v1.8a.1.1 0 0 0 .1.1zm8 0h1.8a.1.1 0 0 0 .1-.1v-1.8a.1.1 0 0 0-.1-.1h-1.8a.1.1 0 0 0-.1.1v1.8a.1.1 0 0 0 .1.1zm0 4h1.8a.1.1 0 0 0 .1-.1v-1.8a.1.1 0 0 0-.1-.1h-1.8a.1.1 0 0 0-.1.1v1.8a.1.1 0 0 0 .1.1zm-4 0h1.8a.1.1 0 0 0 .1-.1v-1.8a.1.1 0 0 0-.1-.1h-1.8a.1.1 0 0 0-.1.1v1.8a.1.1 0 0 0 .1.1zm-4 0h1.8a.1.1 0 0 0 .1-.1v-1.8a.1.1 0 0 0-.1-.1h-1.8a.1.1 0 0 0-.1.1v1.8a.1.1 0 0 0 .1.1zm-4 0h1.8a.1.1 0 0 0 .1-.1v-1.8a.1.1 0 0 0-.1-.1H7.1a.1.1 0 0 0-.1.1v1.8a.1.1 0 0 0 .1.1zm-4 0h1.8a.1.1 0 0 0 .1-.1v-1.8a.1.1 0 0 0-.1-.1H3.1a.1.1 0 0 0-.1.1v1.8a.1.1 0 0 0 .1.1zm8-8h1.8a.1.1 0 0 0 .1-.1v-1.8a.1.1 0 0 0-.1-.1h-1.8a.1.1 0 0 0-.1.1v1.8a.1.1 0 0 0 .1.1zm4-8h1.8a.1.1 0 0 0 .1-.1V3.1a.1.1 0 0 0-.1-.1h-1.8a.1.1 0 0 0-.1.1v1.8a.1.1 0 0 0 .1.1zM19 3.1v1.8a.1.1 0 0 0 .1.1h1.8a.1.1 0 0 0 .1-.1V3.1a.1.1 0 0 0-.1-.1h-1.8a.1.1 0 0 0-.1.1zm.1 5.9h1.8a.1.1 0 0 0 .1-.1V7.1a.1.1 0 0 0-.1-.1h-1.8a.1.1 0 0 0-.1.1v1.8a.1.1 0 0 0 .1.1zm-16 4h1.8a.1.1 0 0 0 .1-.1v-1.8a.1.1 0 0 0-.1-.1H3.1a.1.1 0 0 0-.1.1v1.8a.1.1 0 0 0 .1.1zm4 0h1.8a.1.1 0 0 0 .1-.1v-1.8a.1.1 0 0 0-.1-.1H7.1a.1.1 0 0 0-.1.1v1.8a.1.1 0 0 0 .1.1zm8 0h1.8a.1.1 0 0 0 .1-.1v-1.8a.1.1 0 0 0-.1-.1h-1.8a.1.1 0 0 0-.1.1v1.8a.1.1 0 0 0 .1.1zm4 0h1.8a.1.1 0 0 0 .1-.1v-1.8a.1.1 0 0 0-.1-.1h-1.8a.1.1 0 0 0-.1.1v1.8a.1.1 0 0 0 .1.1z"/></svg>