<svg xmlns="http://www.w3.org/2000/svg" viewBox="0 0 24 24"><path d="M4.9 3H3.1a.1.1 0 0 0-.1.1v1.8a.1.1 0 0 0 .1.1h1.8a.1.1 0 0 0 .1-.1V3.1a.1.1 0 0 0-.1-.1zm0 4H3.1a.1.1 0 0 0-.1.1v1.8a.1.1 0 0 0 .1.1h1.8a.1.1 0 0 0 .1-.1V7.1a.1.1 0 0 0-.1-.1zm0 8H3.1a.1.1 0 0 0-.1.1v1.8a.1.1 0 0 0 .1.1h1.8a.1.1 0 0 0 .1-.1v-1.8a.1.1 0 0 0-.1-.1zm-1.8 6h17.8a.1.1 0 0 0 .1-.1v-1.8a.1.1 0 0 0-.1-.1H3.1a.1.1 0 0 0-.1.1v1.8a.1.1 0 0 0 .1.1zM8.9 3H7.1a.1.1 0 0 0-.1.1v1.8a.1.1 0 0 0 .1.1h1.8a.1.1 0 0 0 .1-.1V3.1a.1.1 0 0 0-.1-.1zm4 0h-1.8a.1.1 0 0 0-.1.1v1.8a.1.1 0 0 0 .1.1h1.8a.1.1 0 0 0 .1-.1V3.1a.1.1 0 0 0-.1-.1zm0 4h-1.8a.1.1 0 0 0-.1.1v1.8a.1.1 0 0 0 .1.1h1.8a.1.1 0 0 0 .1-.1V7.1a.1.1 0 0 0-.1-.1zm0 8h-1.8a.1.1 0 0 0-.1.1v1.8a.1.1 0 0 0 .1.1h1.8a.1.1 0 0 0 .1-.1v-1.8a.1.1 0 0 0-.1-.1zm6.2 2h1.8a.1.1 0 0 0 .1-.1v-1.8a.1.1 0 0 0-.1-.1h-1.8a.1.1 0 0 0-.1.1v1.8a.1.1 0 0 0 .1.1zm-6.2-6h-1.8a.1.1 0 0 0-.1.1v1.8a.1.1 0 0 0 .1.1h1.8a.1.1 0 0 0 .1-.1v-1.8a.1.1 0 0 0-.1-.1zm4-8h-1.8a.1.1 0 0 0-.1.1v1.8a.1.1 0 0 0 .1.1h1.8a.1.1 0 0 0 .1-.1V3.1a.1.1 0 0 0-.1-.1zm2.1.1v1.8a.1.1 0 0 0 .1.1h1.8a.1.1 0 0 0 .1-.1V3.1a.1.1 0 0 0-.1-.1h-1.8a.1.1 0 0 0-.1.1zm.1 5.9h1.8a.1.1 0 0 0 .1-.1V7.1a.1.1 0 0 0-.1-.1h-1.8a.1.1 0 0 0-.1.1v1.8a.1.1 0 0 0 .1.1zM4.9 11H3.1a.1.1 0 0 0-.1.1v1.8a.1.1 0 0 0 .1.1h1.8a.1.1 0 0 0 .1-.1v-1.8a.1.1 0 0 0-.1-.1zm4 0H7.1a.1.1 0 0 0-.1.1v1.8a.1.1 0 0 0 .1.1h1.8a.1.1 0 0 0 .1-.1v-1.8a.1.1 0 0 0-.1-.1zm8 0h-1.8a.1.1 0 0 0-.1.1v1.8a.1.1 0 0 0 .1.1h1.8a.1.1 0 0 0 .1-.1v-1.8a.1.1 0 0 0-.1-.1zm2.2 2h1.8a.1.1 0 0 0 .1-.1v-1.8a.1.1 0 0 0-.1-.1h-1.8a.1.1 0 0 0-.1.1v1.8a.1.1 0 0 0 .1.1z"/></svg>