<svg xmlns="http://www.w3.org/2000/svg" viewBox="0 0 24 24"><path d="M12.9 7h-1.8a.1.1 0 0 0-.1.1v1.8a.1.1 0 0 0 .1.1h1.8a.1.1 0 0 0 .1-.1V7.1a.1.1 0 0 0-.1-.1zm4 4h-1.8a.1.1 0 0 0-.1.1v1.8a.1.1 0 0 0 .1.1h1.8a.1.1 0 0 0 .1-.1v-1.8a.1.1 0 0 0-.1-.1zm-4 0h-1.8a.1.1 0 0 0-.1.1v1.8a.1.1 0 0 0 .1.1h1.8a.1.1 0 0 0 .1-.1v-1.8a.1.1 0 0 0-.1-.1zm0 4h-1.8a.1.1 0 0 0-.1.1v1.8a.1.1 0 0 0 .1.1h1.8a.1.1 0 0 0 .1-.1v-1.8a.1.1 0 0 0-.1-.1zM3 3.1v17.8a.1.1 0 0 0 .1.1h17.8a.1.1 0 0 0 .1-.1V3.1a.1.1 0 0 0-.1-.1H3.1a.1.1 0 0 0-.1.1zM18.9 19H5.1a.1.1 0 0 1-.1-.1V5.1a.1.1 0 0 1 .1-.1h13.8a.1.1 0 0 1 .1.1v13.8a.1.1 0 0 1-.1.1zm-10-8H7.1a.1.1 0 0 0-.1.1v1.8a.1.1 0 0 0 .1.1h1.8a.1.1 0 0 0 .1-.1v-1.8a.1.1 0 0 0-.1-.1z"/></svg>