<svg xmlns="http://www.w3.org/2000/svg" viewBox="0 0 24 24"><path d="M17 4.9V3.1a.1.1 0 0 0-.1-.1h-1.8a.1.1 0 0 0-.1.1v1.8a.1.1 0 0 1-.1.1H9.1a.1.1 0 0 1-.1-.1V3.1a.1.1 0 0 0-.1-.1H7.1a.1.1 0 0 0-.1.1v1.8a.1.1 0 0 1-.1.1H3.1a.1.1 0 0 0-.1.1v15.8a.1.1 0 0 0 .1.1h17.8a.1.1 0 0 0 .1-.1V5.1a.1.1 0 0 0-.1-.1h-3.8a.1.1 0 0 1-.1-.1zM18.9 19H5.1a.1.1 0 0 1-.1-.1V8.1a.1.1 0 0 1 .1-.1H7v1h2V8h6v1h2V8h1.9a.1.1 0 0 1 .1.1v10.8a.1.1 0 0 1-.1.1zM7.1 14h1.8a.1.1 0 0 0 .1-.1v-1.8a.1.1 0 0 0-.1-.1H7.1a.1.1 0 0 0-.1.1v1.8a.1.1 0 0 0 .1.1zm0 3h1.8a.1.1 0 0 0 .1-.1v-1.8a.1.1 0 0 0-.1-.1H7.1a.1.1 0 0 0-.1.1v1.8a.1.1 0 0 0 .1.1zm4-3h1.8a.1.1 0 0 0 .1-.1v-1.8a.1.1 0 0 0-.1-.1h-1.8a.1.1 0 0 0-.1.1v1.8a.1.1 0 0 0 .1.1zm0 3h1.8a.1.1 0 0 0 .1-.1v-1.8a.1.1 0 0 0-.1-.1h-1.8a.1.1 0 0 0-.1.1v1.8a.1.1 0 0 0 .1.1zm4-3h1.8a.1.1 0 0 0 .1-.1v-1.8a.1.1 0 0 0-.1-.1h-1.8a.1.1 0 0 0-.1.1v1.8a.1.1 0 0 0 .1.1zm0 3h1.8a.1.1 0 0 0 .1-.1v-1.8a.1.1 0 0 0-.1-.1h-1.8a.1.1 0 0 0-.1.1v1.8a.1.1 0 0 0 .1.1z"/></svg>