<svg xmlns="http://www.w3.org/2000/svg" viewBox="0 0 24 24"><path d="M17.07 11.38L9 19.48a.1.1 0 0 0 0 .16 7.84 7.84 0 0 0 6.91.05A4.62 4.62 0 0 0 18.17 17a5.41 5.41 0 0 0-.17-3.74 2.44 2.44 0 0 0-.1-.24l-.24-.57a10.42 10.42 0 0 0-.59-1.07zM19 3.57l-4.1 4.08a.1.1 0 0 1-.16 0l-2.65-4.07a.09.09 0 0 0-.16 0L8.38 9l-1.16 1.9a8.43 8.43 0 0 0-.87 1.55 4.67 4.67 0 0 0-.35 2 5.86 5.86 0 0 0 .27 1.74.09.09 0 0 1 0 .1L3.6 18.93a.1.1 0 0 0 0 .14l1.28 1.27a.1.1 0 0 0 .14 0L20.4 5a.1.1 0 0 0 0-.14l-1.28-1.3a.1.1 0 0 0-.11 0z"/></svg>