<svg xmlns="http://www.w3.org/2000/svg" xmlns:xlink="http://www.w3.org/1999/xlink" viewBox="0 0 24 24"><path d="M12 4a8 8 0 1 0 8 8 8 8 0 0 0-8-8zm0 15.1A7.11 7.11 0 1 1 19.11 12 7.12 7.12 0 0 1 12 19.11z"/><circle cx="12" cy="6.22" r=".44"/><circle cx="12" cy="17.78" r=".44"/><circle cx="17.78" cy="12" r=".44"/><circle cx="6.22" cy="12" r=".44"/><use xlink:href="#B"/><use xlink:href="#C"/><use xlink:href="#B" y="-8.17"/><use xlink:href="#C" y="8.17"/><path d="M14.28 13.64l-1.8-1.8v-3.4a.45.45 0 1 0-.89 0V12a.45.45 0 0 0 .13.32l1.92 1.92a.45.45 0 0 0 .63-.63z"/><defs><path id="B" d="M16.1 15.64a.44.44 0 0 0-.32.13.45.45 0 0 0 0 .63.44.44 0 0 0 .32.13.43.43 0 0 0 .31-.13.45.45 0 0 0 0-.63.43.43 0 0 0-.31-.13z"/><path id="C" d="M7.9 7.47a.43.43 0 0 0-.31.13.45.45 0 0 0 0 .63.43.43 0 0 0 .31.13.44.44 0 0 0 .32-.13.45.45 0 0 0 0-.63.44.44 0 0 0-.32-.13z"/></defs></svg>