<svg xmlns="http://www.w3.org/2000/svg" viewBox="0 0 24 24"><path d="M17 9.94a3.48 3.48 0 0 0-.79.09 5 5 0 0 0-9.37-.47 4 4 0 0 0-1.11.26 3.67 3.67 0 0 0-2.09 2.32 4.15 4.15 0 0 0 .46 3.46 4.06 4.06 0 0 0 2.69 1.81 8.55 8.55 0 0 0 1.41.09h8.2a4.07 4.07 0 0 0 3.81-2.38 3.69 3.69 0 0 0 .33-1.68A3.5 3.5 0 0 0 17 9.94zm2.26 4.76a3.09 3.09 0 0 1-2.9 1.8h-8A8.75 8.75 0 0 1 7 16.43a3.07 3.07 0 0 1-2.33-4 2.62 2.62 0 0 1 1.5-1.69 3 3 0 0 1 1.06-.2h.38l.12-.34a4 4 0 0 1 7.7.55l.1.6.57-.24a2.45 2.45 0 0 1 1-.19 2.5 2.5 0 0 1 2.5 2.5 2.83 2.83 0 0 1-.32 1.27z"/></svg>