<svg xmlns="http://www.w3.org/2000/svg" viewBox="0 0 24 24"><path d="M14.9 9.12a5.25 5.25 0 1 0 5.25 5.25 5.25 5.25 0 0 0-5.25-5.25zm.26 8v.68h-.5v-.68c-1.2-.08-1.95-.73-2-1.76h1.15c0 .5.3.75.84.8V14.8a7.08 7.08 0 0 1-.82-.24 1.38 1.38 0 0 1-1.06-1.38c0-.92.73-1.56 1.88-1.63V11h.5v.56A1.77 1.77 0 0 1 17 13.17h-1.17a.74.74 0 0 0-.67-.68v1.25A5.78 5.78 0 0 1 16 14a1.41 1.41 0 0 1 1.09 1.42c.03.9-.7 1.58-1.93 1.67zM14 13.05c0 .3.22.48.7.6V12.5a1.52 1.52 0 0 0-.29.07.55.55 0 0 0-.41.49zm1.16 1.85v1.23c.46 0 .76-.27.76-.6s-.23-.53-.76-.64zm-4.3-7.52c3.87 0 7-.67 7-1.5s-3.13-1.5-7-1.5-7 .67-7 1.5 3.15 1.5 7 1.5zm-7 0v2a20.67 20.67 0 0 0 6.32 1 6.22 6.22 0 0 1 7.68-1.45V7.38a21.39 21.39 0 0 1-7 1 21.47 21.47 0 0 1-7-1zM8.7 14.3a19.19 19.19 0 0 1-4.86-.92v2a19.82 19.82 0 0 0 5.15.94 6.27 6.27 0 0 1-.31-2zm-4.86-1.92a19.26 19.26 0 0 0 5 .92 5.9 5.9 0 0 1 .7-2 20.37 20.37 0 0 1-5.65-1z"/></svg>