<svg xmlns="http://www.w3.org/2000/svg" viewBox="0 0 24 24"><path d="M16.766 12.113h-3.02a3.12 3.12 0 0 0-2.519 1.29c-.018.024-.045.04-.076.04h-3.4c-2.013 0-3.657 1.6-3.737 3.605H4l.002.13v.015l.032 2.696a.1.1 0 0 0 .1.099H15.16a.1.1 0 0 0 .1-.1l-.004-2.695c0-2.063-1.688-3.752-3.752-3.752h.993c.762 0 1.47.233 2.06.63.69.465 1.213 1.265 1.25 2.096.002.052.042.092.094.092l4-.01a.1.1 0 0 0 .1-.1v-.8c.001-1.778-1.454-3.233-3.233-3.233zM9 12a4 4 0 1 0 0-8 4 4 0 1 0 0 8zm6-1a3 3 0 1 0 0-6 2.98 2.98 0 0 0-1.684.518A4.95 4.95 0 0 1 14 8a4.95 4.95 0 0 1-.684 2.482A2.98 2.98 0 0 0 15 11z"/></svg>