<svg xmlns="http://www.w3.org/2000/svg" viewBox="0 0 24 24"><path d="M12 3c-4.937 0-9 4.063-9 9s4.063 9 9 9v-9l9-.003C20.998 7.06 16.936 3 12 3zM5.094 9.974c0-.98.794-1.773 1.773-1.773s1.773.794 1.773 1.773-.794 1.773-1.773 1.773-1.773-.794-1.773-1.773zm2.954 7.682c-.98 0-1.773-.794-1.773-1.773S7.07 14.1 8.048 14.1s1.773.794 1.773 1.773-.794 1.773-1.773 1.773zm3.546-9.454c-.98 0-1.773-.794-1.773-1.773s.794-1.773 1.773-1.773 1.773.794 1.773 1.773-.794 1.773-1.773 1.773zm4.727 2.363c-.98 0-1.773-.794-1.773-1.773s.794-1.773 1.773-1.773 1.773.794 1.773 1.773-.794 1.773-1.773 1.773z"/></svg>