<svg xmlns="http://www.w3.org/2000/svg" viewBox="0 0 24 24"><path d="M7.133 19.573c-.148-.596-.888-1.2-.933-1.248v-.007l-.008.007c-.045.037-.785.652-.933 1.248-.152.612.256 1.336.933 1.367H6.2c.677-.03 1.085-.755.933-1.367zM19.75 3.328c-.964-.556-2.197-.32-2.983.467L15.1 5.462l-1-1c-.405-.405-1.068-.405-1.473 0l-.254.254c-.405.405-.405 1.068 0 1.473l1 1L7.25 13.3l-.026.047-.964 3.955c-.048.198.126.378.325.336l4.07-.855.05-.027 6.122-6.123 1 1c.405.405 1.068.405 1.473 0l.254-.254c.405-.405.405-1.068 0-1.473l-1-1L20.28 7.2a2.45 2.45 0 0 0-.531-3.862zM12.977 13H9.523l4.556-4.557 1.728 1.728-2.83 2.83z"/></svg>