<svg xmlns="http://www.w3.org/2000/svg" viewBox="0 0 24 24"><path d="M14.63 11.4v1.43H11.7c0 .24.07.5.07.6a2.54 2.54 0 0 1-.86 1.84h.42a5.34 5.34 0 0 1 1.6.33 3.63 3.63 0 0 0 .69.09 2 2 0 0 0 1.75-1l1.15 2a3.39 3.39 0 0 1-2.78 1.29 5.17 5.17 0 0 1-1.6-.28 4.6 4.6 0 0 0-1.44-.32 2.4 2.4 0 0 0-1.59.63l-1.37-1.9c1.34-.92 1.74-1.46 1.74-2.38a2.1 2.1 0 0 0-.19-.89H7.47V11.4h1.2a4.38 4.38 0 0 1-.53-2C8.14 7.42 9.9 6 12.3 6a3.83 3.83 0 0 1 3.36 1.51 3.74 3.74 0 0 1 .7 2.43H14C14 8.6 13.43 8 12.3 8a1.49 1.49 0 0 0-1.67 1.44 5.34 5.34 0 0 0 .54 1.93z"/></svg>