<svg xmlns="http://www.w3.org/2000/svg" viewBox="0 0 24 24"><path d="M20.002 8.57c.855-.784.037-2.25-1-1.732l-5.62 3.245c-.037.02-.085.015-.117-.012l-1.095-.93c-.606-.512.222-2.29-.56-2.813-5.932-3.98-6.94 2.827-6.477 3.188.01.007.018.01.028.017l4.435 2.56a.1.1 0 0 1 0 .173l-4.45 2.57c-.494.247.5 6.455 6.464 3.196.825-.45-.047-2.3.56-2.813l7.834-6.65zM8.72 18.167c-1.18 0-2.135-.956-2.135-2.135s.956-2.135 2.135-2.135 2.135.956 2.135 2.135-.956 2.135-2.135 2.135zm0-7.834c-1.18 0-2.135-.956-2.135-2.135S7.54 6.063 8.72 6.063s2.135.956 2.135 2.135-.956 2.135-2.135 2.135zm8.425 2.988a.1.1 0 0 0-.136.005l-1.905 1.905c-.047.047-.036.124.02.157l3.878 2.135c1.037.52 1.855-.948 1-1.732 0 .001-1.085-.964-2.858-2.47z"/></svg>