<svg xmlns="http://www.w3.org/2000/svg" viewBox="0 0 24 24"><path d="M11 8.92c-5.57 0-6.5-1.17-6.5-1.17v2.33s.93 1.17 6.5 1.17 6.5-1.17 6.5-1.17V7.75s-.93 1.17-6.5 1.17zm0-1.17c3.6 0 6.5-.78 6.5-1.75S14.6 4.25 11 4.25 4.5 5 4.5 6 7.4 7.75 11 7.75zm1 8.15h-1c-5.57 0-6.5-1.17-6.5-1.17v2.33s.93 1.17 6.5 1.17h1.54a3.84 3.84 0 0 1-.54-2 2.09 2.09 0 0 1 0-.33zm-1-3.48c-5.57 0-6.5-1.17-6.5-1.17v2.33s.93 1.17 6.5 1.17h1.3a4 4 0 0 1 3.7-2.5 3.94 3.94 0 0 1 1.5.3v-1.3s-.93 1.17-6.5 1.17zm5 .33a3.5 3.5 0 1 0 3.5 3.5 3.5 3.5 0 0 0-3.5-3.5zm2 4h-1.5v1.5h-1v-1.5H14v-1h1.5v-1.5h1v1.5H18z"/></svg>