<svg xmlns="http://www.w3.org/2000/svg" viewBox="0 0 24 24"><path d="M19.6 14.4l-1.4-1.4-1.77 1.76L14.64 13l-1.4 1.4L15 16.16l-1.76 1.77 1.4 1.4 1.77-1.77 1.77 1.77 1.4-1.4-1.77-1.77zM10.9 8.16c3.6 0 6.5-.78 6.5-1.75s-2.9-1.75-6.5-1.75-6.5.78-6.5 1.75 2.9 1.75 6.5 1.75zm0 3.5c5.57 0 6.5-1.17 6.5-1.17V8.16s-.93 1.17-6.5 1.17-6.5-1.17-6.5-1.17v2.33s.93 1.17 6.5 1.17zm4 .9l.07.07L16.4 14l1-1v-1.34s-.4.54-2.5.9zm-4 2.6l2.3-.08-.7-.7 1.75-1.75a26.8 26.8 0 0 1-3.36.19c-5.57 0-6.5-1.17-6.5-1.17V14s.93 1.16 6.5 1.16zm2 2.4l1.42-1.4a26.8 26.8 0 0 1-3.36.19c-5.57 0-6.5-1.17-6.5-1.17v2.33s.93 1.17 6.5 1.17l2.26-.08-.65-.65z"/></svg>