<svg xmlns="http://www.w3.org/2000/svg" viewBox="0 0 24 24"><path d="M3.1 14h1.8a.1.1 0 0 0 .1-.1v-1.8a.1.1 0 0 0-.1-.1H3.1a.1.1 0 0 0-.1.1v1.8a.1.1 0 0 0 .1.1zm8.598-9.444c-.293-.236-.644-.413-1.06-.51-.548-.128-1.128-.127-1.67.027C8.2 4.3 7.563 4.81 7.17 5.5c-.464.816-.66 1.814-.66 3.262 0 1.434.197 2.4.66 3.233a2.95 2.95 0 0 0 2.643 1.589c1.14 0 2.123-.6 2.657-1.59.45-.815.66-1.813.66-3.177 0-1.446-.262-3.32-1.432-4.263zm-1.872 7.34c-.913 0-1.39-1.068-1.39-3.15 0-2.066.478-3.135 1.378-3.135.928 0 1.39 1.07 1.39 3.177 0 2.04-.478 3.107-1.378 3.107zm7.857 1.687c1.14 0 2.123-.6 2.657-1.59.45-.814.66-1.812.66-3.176 0-1.12-.09-2.323-.635-3.326-.637-1.176-1.944-1.767-3.26-1.513l-.3.074c-.757.226-1.386.758-1.765 1.448-.464.815-.66 1.813-.66 3.26 0 1.434.197 2.4.66 3.233a2.95 2.95 0 0 0 2.643 1.588zm0-7.97c.928 0 1.39 1.07 1.39 3.177 0 2.038-.478 3.107-1.378 3.107-.913 0-1.39-1.068-1.39-3.15 0-2.067.478-3.135 1.378-3.135zm.817 11.16a.1.1 0 0 1-.1.1H14v1.25h4.4a.1.1 0 0 1 .1.1V20l2.43-2.43a.1.1 0 0 0 0-.141L18.5 15v1.775z"/></svg>