<svg xmlns="http://www.w3.org/2000/svg" viewBox="0 0 24 24"><path d="M3.1 14h1.8a.1.1 0 0 0 .1-.1v-1.8a.1.1 0 0 0-.1-.1H3.1a.1.1 0 0 0-.1.1v1.8a.1.1 0 0 0 .1.1zm8.616-9.467a2.22 2.22 0 0 0-.64-.406c-.598-.246-1.288-.267-1.915-.132-.862.186-1.56.747-1.99 1.506-.464.816-.66 1.814-.66 3.262 0 1.434.197 2.4.66 3.233a2.95 2.95 0 0 0 2.643 1.589c1.14 0 2.123-.6 2.657-1.59.45-.815.66-1.813.66-3.177 0-1.182-.138-2.44-.768-3.478-.18-.3-.392-.58-.646-.808zm-1.9 7.364c-.913 0-1.39-1.068-1.39-3.15 0-2.066.478-3.135 1.378-3.135.928 0 1.39 1.07 1.39 3.177 0 2.04-.478 3.107-1.378 3.107zm6.774 4.978a.1.1 0 0 1-.1-.1V15l-2.43 2.43a.1.1 0 0 0 0 .141L16.5 20v-1.775a.1.1 0 0 1 .1-.1H21v-1.25h-4.4z"/></svg>