<svg xmlns="http://www.w3.org/2000/svg" viewBox="0 0 24 24"><path d="M16.3 12.36a3.55 3.55 0 1 0 3.55 3.54 3.55 3.55 0 0 0-3.55-3.54zm1.9 3.94h-1.38v1.37h-.9V16.3h-1.38v-.9h1.38V14h.9v1.37h1.38zm-9.07-.6v.93h3a5.05 5.05 0 0 1-.07-.68v-.25zm-1.85 3.22a.46.46 0 0 1-.46-.46V5.54a.46.46 0 0 1 .46-.46h6v2.3a1.39 1.39 0 0 0 1.39 1.39H17v3a4 4 0 0 1 .92.24V7.85l-3.73-3.7H7.3a1.38 1.38 0 0 0-1.4 1.39v12.92a1.38 1.38 0 0 0 1.38 1.39h7.32a4.43 4.43 0 0 1-1.33-.93zM14.2 5.5l2.35 2.36h-1.9a.46.46 0 0 1-.46-.47zm.47 6.5H9.13v.92h4.18a4.33 4.33 0 0 1 1.36-.92zm-2.04 1.85h-3.5v.92h3.1a3.75 3.75 0 0 1 .39-.92z"/></svg>