<svg xmlns="http://www.w3.org/2000/svg" viewBox="0 0 24 24"><path d="M5.42 18.24a.47.47 0 0 1-.42-.46V4.85a.47.47 0 0 1 .47-.46h6v2.3a1.38 1.38 0 0 0 1.33 1.38h2.3v3a4 4 0 0 1 .92.25V7.16l-3.73-3.7H5.42A1.38 1.38 0 0 0 4 4.85v12.93a1.38 1.38 0 0 0 1.39 1.38h7.32a4.16 4.16 0 0 1-1.34-.92zM12.34 4.8l2.35 2.35h-1.9a.47.47 0 0 1-.46-.46zm.46 6.5H7.26v.92h4.18a4.36 4.36 0 0 1 1.36-.92zM7.26 15v.92h3a4.91 4.91 0 0 1-.06-.67V15zm3.5-1.85h-3.5v.92h3.1a5 5 0 0 1 .39-.91zm6.7 4v-.06a3.38 3.38 0 0 0 .55-1.85 3.55 3.55 0 1 0-3.55 3.47 3.6 3.6 0 0 0 2.27-.8 0 0 0 0 1 .06 0l2.48 2.6a0 0 0 0 0 .07 0l.64-.67a.06.06 0 0 0 0-.08zm-3 .7a2.6 2.6 0 1 1 2.67-2.6 2.63 2.63 0 0 1-2.69 2.58z"/></svg>