<svg xmlns="http://www.w3.org/2000/svg" viewBox="0 0 24 24"><path d="M13.8 13.85H8.25v.92h5.54zm0-1.85H8.25v.92h5.54zm3.2 4.62V7.85l-3.7-3.7H6.4A1.39 1.39 0 0 0 5 5.54v12.92a1.39 1.39 0 0 0 1.39 1.39h6.44v1H20v-4.23zM13.33 5.5l2.35 2.36h-1.9a.47.47 0 0 1-.46-.47zm-.48 13.43H6.4a.45.45 0 0 1-.41-.46V5.54a.45.45 0 0 1 .46-.46h6v2.3a1.38 1.38 0 0 0 1.38 1.39h2.26v7.85h-2.3v-.93H8.25v.93h4.6zm2.18.9l-.6-.9-.57.9h-.4l.78-1.16-.75-1.1h.38l.55.84.55-.84h.38l-.75 1.1.8 1.16zm2.16 0h-1.5v-2.25h.3v2h1.17zm1.18.05a.88.88 0 0 1-1-.84h.34a.58.58 0 0 0 .65.56c.33 0 .56-.16.56-.4s-.12-.28-.36-.33l-.5-.13c-.4-.1-.6-.27-.6-.58s.32-.64.84-.64a.76.76 0 0 1 .86.74h-.32a.49.49 0 0 0-.56-.46c-.3 0-.5.13-.5.32s.12.27.4.33l.36.08a1 1 0 0 1 .51.22.55.55 0 0 1 .18.43c.02.43-.32.7-.87.7z"/></svg>