<svg xmlns="http://www.w3.org/2000/svg" viewBox="0 0 24 24"><path d="M13.8 12.92V12H8.25v.92h5.54zm0 1.85v-.92H8.25v.92h5.54zm3.2 1.85V7.85l-3.7-3.7H6.4A1.39 1.39 0 0 0 5 5.54v12.92a1.39 1.39 0 0 0 1.39 1.39h6.44v1H20v-4.23zM13.33 5.5l2.35 2.36h-1.9a.47.47 0 0 1-.46-.47zm-.48 13.43H6.4a.45.45 0 0 1-.41-.46v-12.93a.45.45 0 0 1 .46-.46h6v2.3a1.38 1.38 0 0 0 1.38 1.39h2.26v7.85h-2.3v-.93H8.25v.93h4.6zm2.35.54a.89.89 0 0 1-.75.37.91.91 0 0 1-.76-.37 1.26 1.26 0 0 1-.24-.77 1 1 0 0 1 1-1.12.84.84 0 0 1 .88.7h-.3a.56.56 0 0 0-.58-.45c-.4 0-.68.33-.68.84s.27.88.67.88a.62.62 0 0 0 .62-.6h.3a.92.92 0 0 1-.17.52zm1.4.37a.84.84 0 0 1-.94-.81H16a.56.56 0 0 0 .63.54c.3 0 .53-.15.53-.37s-.1-.27-.34-.32l-.5-.12c-.4-.1-.57-.27-.57-.56s.3-.62.8-.62a.74.74 0 0 1 .83.71h-.32a.46.46 0 0 0-.53-.44c-.3 0-.48.12-.48.3s.12.26.4.32l.35.07a1 1 0 0 1 .49.21.56.56 0 0 1 .18.42c-.01.4-.34.66-.87.66zm2.08 0h-.34l-.76-2.16h.33l.46 1.4.15.47c0-.22.08-.3.13-.47l.45-1.4h.33z"/></svg>