<svg xmlns="http://www.w3.org/2000/svg" viewBox="0 0 24 24"><path d="M11.75 13.85h-3.5v.92h3.1a4.71 4.71 0 0 1 .39-.92zM6.4 18.92a.45.45 0 0 1-.41-.46v-12.92a.45.45 0 0 1 .46-.46h6v2.3a1.38 1.38 0 0 0 1.38 1.39h2.26v3a4 4 0 0 1 .9.23v-4.15l-3.7-3.7H6.4A1.39 1.39 0 0 0 5 5.54v12.92a1.39 1.39 0 0 0 1.39 1.39h7.32a4.43 4.43 0 0 1-1.33-.93zM13.33 5.5l2.35 2.36h-1.9a.47.47 0 0 1-.46-.47zM8.25 15.7v.93h3a3.82 3.82 0 0 1-.07-.68 2.42 2.42 0 0 1 0-.25zm7.18-3.34A3.55 3.55 0 1 0 19 15.9a3.55 3.55 0 0 0-3.57-3.54zm1.57 3.8h-3.22v-.9H17zM13.8 12H8.25v.92h4.18a4.33 4.33 0 0 1 1.36-.92z"/></svg>