<svg xmlns="http://www.w3.org/2000/svg" viewBox="0 0 24 24"><path d="M13.8 12H8.25v.92h5.54zm.65 5.85h-.5v.78h.5a.52.52 0 0 0 .36-.1.38.38 0 0 0 .12-.29.37.37 0 0 0-.12-.24.52.52 0 0 0-.36-.15zm-.65-4H8.25v.92h5.54zm2.53 4h-.42v1.67h.4c.5 0 .75-.27.75-.85a1 1 0 0 0-.15-.58.62.62 0 0 0-.58-.24zm.7-1.23V7.85l-3.72-3.7H6.4A1.39 1.39 0 0 0 5 5.54v12.92a1.39 1.39 0 0 0 1.39 1.39h6.44v1H20v-4.23zM13.33 5.5l2.35 2.36h-1.9a.47.47 0 0 1-.46-.47zm-.48 13.43H6.4a.45.45 0 0 1-.41-.46V5.54a.45.45 0 0 1 .46-.46h6v2.3a1.38 1.38 0 0 0 1.38 1.39h2.26v7.85h-2.3v-.93H8.25v.93h4.6zm2.17-.2a.79.79 0 0 1-.6.17h-.5v.9h-.32v-2.23h.78a.9.9 0 0 1 .62.16.63.63 0 0 1 .22.51.6.6 0 0 1-.23.48zm1.34 1.08h-.78v-2.23h.8a.86.86 0 0 1 .78.36 1.26 1.26 0 0 1 .2.73 1 1 0 0 1-1.01 1.14zm2.95-1.95h-1.18v.66h1v.27h-1v1h-.32v-2.2h1.5z"/></svg>