<svg xmlns="http://www.w3.org/2000/svg" viewBox="0 0 24 24"><path d="M12 3a9 9 0 1 0 0 18 9 9 0 1 0 0-18zM8.28 5.846c.04-.025.094-.018.127.016l1.855 1.855c.05.05.032.13-.032.157-1.057.455-1.902 1.3-2.356 2.356-.028.064-.108.08-.157.032L5.862 8.407c-.034-.033-.04-.086-.016-.127a7.26 7.26 0 0 1 2.435-2.434zm1.98 10.437l-1.855 1.855c-.033.033-.087.04-.127.016-.995-.604-1.83-1.44-2.434-2.434-.024-.04-.018-.094.016-.127l1.855-1.855c.05-.05.13-.032.157.032a4.51 4.51 0 0 0 2.357 2.357c.063.027.08.107.03.156zM9 12a3 3 0 1 1 6 0 3 3 0 1 1-6 0zm6.72 6.154c-.04.024-.094.018-.127-.016l-1.855-1.855c-.05-.05-.032-.13.032-.157a4.51 4.51 0 0 0 2.357-2.357c.028-.064.108-.08.157-.032l1.855 1.855c.033.033.04.087.016.127a7.25 7.25 0 0 1-2.435 2.435zm2.42-9.747l-1.855 1.855c-.05.05-.13.032-.157-.032-.455-1.057-1.3-1.902-2.356-2.356-.064-.028-.08-.108-.032-.157l1.855-1.855c.033-.033.087-.04.127-.016.995.604 1.83 1.44 2.434 2.434.024.04.018.094-.016.127z"/></svg>