<svg xmlns="http://www.w3.org/2000/svg" viewBox="0 0 24 24"><path d="M16.586 5L14.29 7.297c-.025.025-.06.034-.095.025A8.06 8.06 0 0 0 12 7c-4.687 0-8.276 4.394-8.707 4.944-.028.036-.028.076 0 .112.233.296 1.384 1.704 3.128 2.942a.1.1 0 0 1 .015.151L4 17.586a.1.1 0 0 0 0 .141L5.272 19a.1.1 0 0 0 .141 0L18 6.414a.1.1 0 0 0 0-.141L16.728 5c-.04-.04-.103-.04-.142 0zm-4.054 4.054C12.36 9.023 12.182 9 12 9a3 3 0 0 0-3 3c0 .182.023.36.054.532l-.807.807C8.096 12.92 8 12.472 8 12a4 4 0 0 1 4-4c.472 0 .92.096 1.34.247l-.807.807zM12 15a3 3 0 0 0 3-3c0-.182-.023-.36-.054-.532l-3.48 3.48c.174.03.35.053.533.053zm5.462-6.048l-1.666 1.666c-.026.026-.035.064-.023.1.14.404.227.832.227 1.283a4 4 0 0 1-4 4c-.472 0-.92-.096-1.34-.247l-.906.907c.712.207 1.46.34 2.245.34 4.68 0 8.485-4.382 8.952-4.94.03-.037.03-.08 0-.117-.256-.305-1.512-1.75-3.36-3-.04-.028-.097-.023-.13.01z"/></svg>