<svg xmlns="http://www.w3.org/2000/svg" viewBox="0 0 24 24"><path d="M3 5.1v1.8a.1.1 0 0 0 .1.1h17.8a.1.1 0 0 0 .1-.1V5.1a.1.1 0 0 0-.1-.1H3.1a.1.1 0 0 0-.1.1zM3.1 19h17.8a.1.1 0 0 0 .1-.1v-1.8a.1.1 0 0 0-.1-.1H3.1a.1.1 0 0 0-.1.1v1.8a.1.1 0 0 0 .1.1zm6-4h11.8a.1.1 0 0 0 .1-.1v-1.8a.1.1 0 0 0-.1-.1H9.1a.1.1 0 0 0-.1.1v1.8a.1.1 0 0 0 .1.1zm0-4h11.8a.1.1 0 0 0 .1-.1V9.1a.1.1 0 0 0-.1-.1H9.1a.1.1 0 0 0-.1.1v1.8a.1.1 0 0 0 .1.1zM3 9.2v5.6c0 .082.094.13.16.08l3.733-2.8a.1.1 0 0 0 0-.16L3.16 9.12C3.094 9.07 3 9.118 3 9.2z"/></svg>