<svg xmlns="http://www.w3.org/2000/svg" viewBox="0 0 24 24"><path d="M3.1 19h17.8a.1.1 0 0 0 .1-.1v-1.8a.1.1 0 0 0-.1-.1H3.1a.1.1 0 0 0-.1.1v1.8a.1.1 0 0 0 .1.1zm.007-6.92l3.733 2.8A.1.1 0 0 0 7 14.8V9.2a.1.1 0 0 0-.16-.08l-3.733 2.8c-.054.04-.054.12 0 .16zM9.1 15h11.8a.1.1 0 0 0 .1-.1v-1.8a.1.1 0 0 0-.1-.1H9.1a.1.1 0 0 0-.1.1v1.8a.1.1 0 0 0 .1.1zm0-4h11.8a.1.1 0 0 0 .1-.1V9.1a.1.1 0 0 0-.1-.1H9.1a.1.1 0 0 0-.1.1v1.8a.1.1 0 0 0 .1.1zM3 5.1v1.8a.1.1 0 0 0 .1.1h17.8a.1.1 0 0 0 .1-.1V5.1a.1.1 0 0 0-.1-.1H3.1a.1.1 0 0 0-.1.1z"/></svg>