<svg xmlns="http://www.w3.org/2000/svg" viewBox="0 0 24 24"><path d="M6.627 9.174c.62-.276 1.322-.177 1.985-.176l2.26.002c.03 0 .063-.001.087-.02.036-.026.04-.078.04-.122v-1.7c0-.03 0-.064-.017-.09-.03-.048-.096-.054-.153-.055l-2.963-.046c-.68-.01-1.43-.05-2.2.326-1.31.637-2.01 1.808-2.417 3.1-.344 1.1-.335 2.293.076 3.373a5.05 5.05 0 0 0 1.986 2.439A5 5 0 0 0 8 17h2.9a.1.1 0 0 0 .1-.1v-1.8a.1.1 0 0 0-.1-.1H8a3.03 3.03 0 0 1-2.697-1.687c-.36-.737-.362-1.583-.1-2.35.247-.728.708-1.47 1.425-1.788zm11.63-2.023c-.336-.118-.697-.165-1.08-.164l-4.002.02c-.053 0-.113.004-.147.044-.027.032-.028.078-.028.12V8.863c0 .042.003.1.035.117.025.02.06.02.093.02l2.802-.003c.694-.001 1.46-.1 1.993.443.85.87 1.3 2.285.936 3.466l-.087.238A3.03 3.03 0 0 1 16 15h-2.9a.1.1 0 0 0-.1.1v1.8a.1.1 0 0 0 .1.1H16c1.18 0 2.334-.425 3.232-1.188.89-.755 1.726-1.937 1.747-3.77.02-1.7-.392-2.608-1.44-3.9a4.21 4.21 0 0 0-.429-.466 2.44 2.44 0 0 0-.854-.515zM8.1 13h7.8a.1.1 0 0 0 .1-.1v-1.8a.1.1 0 0 0-.1-.1H8.1a.1.1 0 0 0-.1.1v1.8a.1.1 0 0 0 .1.1z"/></svg>