<svg xmlns="http://www.w3.org/2000/svg" viewBox="0 0 24 24"><path d="M5.1 9h1.8a.1.1 0 0 0 .1-.1V7.1a.1.1 0 0 0-.1-.1H5.1a.1.1 0 0 0-.1.1v1.8a.1.1 0 0 0 .1.1zm4.8-2H8.1a.1.1 0 0 0-.1.1v1.8a.1.1 0 0 0 .1.1h1.8a.1.1 0 0 0 .1-.1V7.1a.1.1 0 0 0-.1-.1zm3 0h-1.8a.1.1 0 0 0-.1.1v1.8a.1.1 0 0 0 .1.1h1.8a.1.1 0 0 0 .1-.1V7.1a.1.1 0 0 0-.1-.1zm1.2 2h1.8a.1.1 0 0 0 .1-.1V7.1a.1.1 0 0 0-.1-.1h-1.8a.1.1 0 0 0-.1.1v1.8a.1.1 0 0 0 .1.1zM17 7.1v1.8a.1.1 0 0 0 .1.1h1.8a.1.1 0 0 0 .1-.1V7.1a.1.1 0 0 0-.1-.1h-1.8a.1.1 0 0 0-.1.1zM5.1 12h1.8a.1.1 0 0 0 .1-.1v-1.8a.1.1 0 0 0-.1-.1H5.1a.1.1 0 0 0-.1.1v1.8a.1.1 0 0 0 .1.1zm4.8-2H8.1a.1.1 0 0 0-.1.1v1.8a.1.1 0 0 0 .1.1h1.8a.1.1 0 0 0 .1-.1v-1.8a.1.1 0 0 0-.1-.1zm3 0h-1.8a.1.1 0 0 0-.1.1v1.8a.1.1 0 0 0 .1.1h1.8a.1.1 0 0 0 .1-.1v-1.8a.1.1 0 0 0-.1-.1zm1.2 2h1.8a.1.1 0 0 0 .1-.1v-1.8a.1.1 0 0 0-.1-.1h-1.8a.1.1 0 0 0-.1.1v1.8a.1.1 0 0 0 .1.1zm3 0h1.8a.1.1 0 0 0 .1-.1v-1.8a.1.1 0 0 0-.1-.1h-1.8a.1.1 0 0 0-.1.1v1.8a.1.1 0 0 0 .1.1zm-12 3h1.8a.1.1 0 0 0 .1-.1v-1.8a.1.1 0 0 0-.1-.1H5.1a.1.1 0 0 0-.1.1v1.8a.1.1 0 0 0 .1.1zm4.8-2H8.1a.1.1 0 0 0-.1.1v1.8a.1.1 0 0 0 .1.1h1.8a.1.1 0 0 0 .1-.1v-1.8a.1.1 0 0 0-.1-.1zm3 0h-1.8a.1.1 0 0 0-.1.1v1.8a.1.1 0 0 0 .1.1h1.8a.1.1 0 0 0 .1-.1v-1.8a.1.1 0 0 0-.1-.1zm-4.8 5h7.8a.1.1 0 0 0 .1-.1v-1.8a.1.1 0 0 0-.1-.1H8.1a.1.1 0 0 0-.1.1v1.8a.1.1 0 0 0 .1.1zm6-3h1.8a.1.1 0 0 0 .1-.1v-1.8a.1.1 0 0 0-.1-.1h-1.8a.1.1 0 0 0-.1.1v1.8a.1.1 0 0 0 .1.1zm3 0h1.8a.1.1 0 0 0 .1-.1v-1.8a.1.1 0 0 0-.1-.1h-1.8a.1.1 0 0 0-.1.1v1.8a.1.1 0 0 0 .1.1z"/></svg>