<svg xmlns="http://www.w3.org/2000/svg" viewBox="0 0 24 24"><path d="M10.03 6.43L6.67 3.07a.1.1 0 0 0-.141 0L3.17 6.43a.1.1 0 0 0 .07.171H5.6a.1.1 0 0 1 .1.1v10.6a.1.1 0 0 1-.1.1H3.24c-.09 0-.134.108-.07.17l3.36 3.36a.1.1 0 0 0 .141 0l3.36-3.36c.063-.063.018-.17-.07-.17H7.6a.1.1 0 0 1-.1-.1V6.7a.1.1 0 0 1 .1-.1h2.36a.1.1 0 0 0 .07-.171zM13 7.1v1.8a.1.1 0 0 0 .1.1h7.8a.1.1 0 0 0 .1-.1V7.1a.1.1 0 0 0-.1-.1h-7.8a.1.1 0 0 0-.1.1zm.1 5.9h7.8a.1.1 0 0 0 .1-.1v-1.8a.1.1 0 0 0-.1-.1h-7.8a.1.1 0 0 0-.1.1v1.8a.1.1 0 0 0 .1.1zm0 4h7.8a.1.1 0 0 0 .1-.1v-1.8a.1.1 0 0 0-.1-.1h-7.8a.1.1 0 0 0-.1.1v1.8a.1.1 0 0 0 .1.1z"/></svg>