<svg xmlns="http://www.w3.org/2000/svg" viewBox="0 0 24 24"><path d="M3 7.1v1.8a.1.1 0 0 0 .1.1h17.8a.1.1 0 0 0 .1-.1V7.1a.1.1 0 0 0-.1-.1H3.1a.1.1 0 0 0-.1.1zm7.9 3.9H3.1a.1.1 0 0 0-.1.1v1.8a.1.1 0 0 0 .1.1h7.8a.1.1 0 0 0 .1-.1v-1.8a.1.1 0 0 0-.1-.1zm-7.8 6h1.8a.1.1 0 0 0 .1-.1v-1.8a.1.1 0 0 0-.1-.1H3.1a.1.1 0 0 0-.1.1v1.8a.1.1 0 0 0 .1.1zm4 0h1.8a.1.1 0 0 0 .1-.1v-1.8a.1.1 0 0 0-.1-.1H7.1a.1.1 0 0 0-.1.1v1.8a.1.1 0 0 0 .1.1zm4 0h1.8a.1.1 0 0 0 .1-.1v-1.8a.1.1 0 0 0-.1-.1h-1.8a.1.1 0 0 0-.1.1v1.8a.1.1 0 0 0 .1.1zm4 0h1.8a.1.1 0 0 0 .1-.1v-1.8a.1.1 0 0 0-.1-.1h-1.8a.1.1 0 0 0-.1.1v1.8a.1.1 0 0 0 .1.1zm4 0h1.8a.1.1 0 0 0 .1-.1v-1.8a.1.1 0 0 0-.1-.1h-1.8a.1.1 0 0 0-.1.1v1.8a.1.1 0 0 0 .1.1zm-6-4h7.8a.1.1 0 0 0 .1-.1v-1.8a.1.1 0 0 0-.1-.1h-7.8a.1.1 0 0 0-.1.1v1.8a.1.1 0 0 0 .1.1z"/></svg>