<svg xmlns="http://www.w3.org/2000/svg" viewBox="0 0 24 24"><path d="M17.106 11.53l-.75-.005c-.113-.002-.098-.112-.098-.112l-.057-2.6c-.086-.604-.342-1.177-.658-1.7-.653-1.083-1.74-1.86-2.98-2.122-1.037-.218-2.125-.084-3.09.326-.815.346-2.544 1.135-2.544 4.853l-.008 1.17c0 .066.017.162-.136.162-.067 0-.534-.01-.703-.007-.032 0-.08.038-.084.088L6 18.9a.1.1 0 0 0 .1.1h11.006a.1.1 0 0 0 .1-.1v-7.27c0-.056-.045-.1-.1-.1zm-8.32-.1l.013-1.74C8.8 7.71 9.968 6.914 11.593 6.89c1.543-.022 2.78.828 2.78 2.797l.02 1.68c0 .055.018.16-.16.16H8.887c-.055-.001-.1-.046-.1-.1z"/></svg>