<svg xmlns="http://www.w3.org/2000/svg" viewBox="0 0 24 24"><path d="M3.1 9h1.8a.1.1 0 0 0 .1-.1V6.1a.1.1 0 0 1 .1-.1h5.8a.1.1 0 0 0 .1-.1V4.1a.1.1 0 0 0-.1-.1H3.1a.1.1 0 0 0-.1.1v4.8a.1.1 0 0 0 .1.1zM13 4.1v1.8a.1.1 0 0 0 .1.1h5.8a.1.1 0 0 1 .1.1v2.8a.1.1 0 0 0 .1.1h1.8a.1.1 0 0 0 .1-.1V4.1a.1.1 0 0 0-.1-.1h-7.8a.1.1 0 0 0-.1.1zM18.9 18h-5.8a.1.1 0 0 0-.1.1v1.8a.1.1 0 0 0 .1.1h7.8a.1.1 0 0 0 .1-.1v-4.8a.1.1 0 0 0-.1-.1h-1.8a.1.1 0 0 0-.1.1v2.8a.1.1 0 0 1-.1.1zm-14-3H3.1a.1.1 0 0 0-.1.1v4.8a.1.1 0 0 0 .1.1h7.8a.1.1 0 0 0 .1-.1v-1.8a.1.1 0 0 0-.1-.1H5.1a.1.1 0 0 1-.1-.1v-2.8a.1.1 0 0 0-.1-.1zm2-4H3.1a.1.1 0 0 0-.1.1v1.8a.1.1 0 0 0 .1.1h3.8a.1.1 0 0 1 .1.1v2.66c0 .09.108.134.17.07l3.76-3.76a.1.1 0 0 0 0-.141L7.17 8.17a.1.1 0 0 0-.171.07v2.66a.1.1 0 0 1-.1.1zm9.93-2.83l-3.76 3.76a.1.1 0 0 0 0 .141l3.76 3.76c.063.062.17.018.17-.07V13.1a.1.1 0 0 1 .1-.1h3.8a.1.1 0 0 0 .1-.1v-1.8a.1.1 0 0 0-.1-.1h-3.8a.1.1 0 0 1-.1-.1V8.24a.1.1 0 0 0-.171-.07z"/></svg>