<svg xmlns="http://www.w3.org/2000/svg" viewBox="0 0 24 24"><path d="M5 5h1.9a.1.1 0 0 1 .1.1V8h1V4.1a.1.1 0 0 0-.1-.1H5v1zm0 6h1.612L5 13v1h3v-1H6.388L8 11v-1H5v1zm0 6h2v1H6v1H5v1h2.9a.1.1 0 0 0 .1-.1v-3.8a.1.1 0 0 0-.1-.1H5v1zm5-11.9v1.8a.1.1 0 0 0 .1.1h8.8a.1.1 0 0 0 .1-.1V5.1a.1.1 0 0 0-.1-.1h-8.8a.1.1 0 0 0-.1.1zm.1 7.9h8.8a.1.1 0 0 0 .1-.1v-1.8a.1.1 0 0 0-.1-.1h-8.8a.1.1 0 0 0-.1.1v1.8a.1.1 0 0 0 .1.1zm0 6h8.8a.1.1 0 0 0 .1-.1v-1.8a.1.1 0 0 0-.1-.1h-8.8a.1.1 0 0 0-.1.1v1.8a.1.1 0 0 0 .1.1z"/></svg>