<svg xmlns="http://www.w3.org/2000/svg" viewBox="0 0 24 24"><path d="M19.12 14.464L17 16.586l-2.12-2.122-1.415 1.415L15.586 18l-2.122 2.12 1.415 1.415L17 19.414l2.12 2.122 1.415-1.415L18.414 18l2.122-2.12-1.415-1.415zM10.9 15H8a3.03 3.03 0 0 1-2.697-1.687c-.36-.737-.362-1.583-.1-2.352.247-.728.708-1.468 1.425-1.787.62-.276 1.322-.177 1.985-.176l2.26.002c.03 0 .063-.001.087-.02.036-.026.04-.078.04-.122v-1.7c0-.03 0-.064-.017-.09-.03-.048-.096-.054-.152-.055l-2.964-.046c-.68-.01-1.43-.05-2.2.326-1.31.637-2.01 1.808-2.417 3.1-.344 1.1-.335 2.293.076 3.373a5.05 5.05 0 0 0 1.986 2.439A5 5 0 0 0 8 17h2.9a.1.1 0 0 0 .1-.1v-1.8a.1.1 0 0 0-.1-.1zm9.726-5.148c-.45-1.106-1.266-2.216-2.384-2.662a2.82 2.82 0 0 0-1.066-.203l-4.002.02c-.053 0-.113.004-.147.044-.027.032-.028.078-.028.12V8.863c0 .042.003.1.035.117.025.02.06.02.093.02l2.802-.003c.694-.001 1.46-.1 1.993.443.85.87 1.3 2.285.936 3.466l-.034.093h2.05c.058-.3.1-.613.104-.958.008-.746-.07-1.495-.354-2.2zM8 11.1v1.8a.1.1 0 0 0 .1.1h7.8a.1.1 0 0 0 .1-.1v-1.8a.1.1 0 0 0-.1-.1H8.1a.1.1 0 0 0-.1.1z"/></svg>