<svg xmlns="http://www.w3.org/2000/svg" viewBox="0 0 24 24"><path d="M19.9 14h-1.8a.1.1 0 0 0-.1.1v3.8a.1.1 0 0 1-.1.1H5.1a.1.1 0 0 1-.1-.1V6.1a.1.1 0 0 1 .1-.1h5.8a.1.1 0 0 0 .1-.1V4.1a.1.1 0 0 0-.1-.1H3.1a.1.1 0 0 0-.1.1v15.8a.1.1 0 0 0 .1.1h16.8a.1.1 0 0 0 .1-.1v-5.8a.1.1 0 0 0-.1-.1zm-2.588-9.824c-.276-.276-.8-.388-.8.288L16.5 6.72c-6.15.02-8.613 2.755-9.596 5.075-.83 1.962.49 5.304.49 5.304l.104-1.052c.305-3.09 2.835-6.382 9.002-6.5v2.108c-.006.34.516.398.694.23C17.405 11.675 21 8.39 21 8.39c.14-.143.14-.372 0-.514l-3.69-3.7z"/></svg>