<svg xmlns="http://www.w3.org/2000/svg" viewBox="0 0 24 24"><path d="M13 18.9v-1.8a.1.1 0 0 0-.1-.1H3.1a.1.1 0 0 0-.1.1v1.8a.1.1 0 0 0 .1.1h9.8a.1.1 0 0 0 .1-.1zM3 13.1v1.8a.1.1 0 0 0 .1.1h6.8a.1.1 0 0 0 .1-.1v-1.8a.1.1 0 0 0-.1-.1H3.1a.1.1 0 0 0-.1.1zm0-4v1.8a.1.1 0 0 0 .1.1h4.8a.1.1 0 0 0 .1-.1V9.1a.1.1 0 0 0-.1-.1H3.1a.1.1 0 0 0-.1.1zm0-4v1.8a.1.1 0 0 0 .1.1h1.8a.1.1 0 0 0 .1-.1V5.1a.1.1 0 0 0-.1-.1H3.1a.1.1 0 0 0-.1.1zm14.07 13.83l3.76-3.76a.1.1 0 0 0-.071-.17H18.1a.1.1 0 0 1-.1-.1V5.1a.1.1 0 0 0-.1-.1h-1.8a.1.1 0 0 0-.1.1v9.8a.1.1 0 0 1-.1.1h-2.66c-.09 0-.134.108-.07.17l3.76 3.76c.04.038.103.038.142-.001z"/></svg>