<svg xmlns="http://www.w3.org/2000/svg" viewBox="0 0 24 24"><path d="M18 20.613l-5.552-2.92c-.03-.015-.064-.015-.093 0L6.8 20.613a.1.1 0 0 1-.145-.105l1.062-6.183c.006-.032-.005-.066-.03-.09l-4.493-4.38a.1.1 0 0 1 .055-.171l6.21-.903a.1.1 0 0 0 .076-.054l2.777-5.626a.1.1 0 0 1 .179 0l2.777 5.626c.015.03.043.05.075.055l6.21.903a.1.1 0 0 1 .055.171l-4.494 4.38c-.024.023-.034.056-.03.09l1.06 6.183c.015.08-.07.142-.144.104zM7.16 11.14l2.516 2.452c.024.023.034.056.03.09L9.1 17.144a.1.1 0 0 0 .145.105l3.11-1.635c.03-.015.064-.015.093 0l3.11 1.635a.1.1 0 0 0 .145-.105l-.594-3.462c-.006-.032.005-.066.03-.09l2.516-2.452c.06-.058.027-.16-.055-.17l-3.477-.505c-.033-.005-.06-.025-.075-.055L12.5 7.26a.1.1 0 0 0-.179 0l-1.554 3.15c-.015.03-.043.05-.075.055l-3.478.505a.1.1 0 0 0-.055.171z"/></svg>