<svg xmlns="http://www.w3.org/2000/svg" viewBox="0 0 24 24"><path d="M20.9 11.4l-17.8.17a.1.1 0 0 0-.1.1v1.8a.1.1 0 0 0 .1.1l17.8-.17a.1.1 0 0 0 .1-.1v-1.8a.11.11 0 0 0-.11-.1zm-6.14-.94c-.34-.12-.72-.22-1.17-.33l-2.72-.6C10 9.34 9.64 9 9.63 8.4c0-.84.85-1.37 2.27-1.4s2.4.62 2.42 1.74V9h2.9a.1.1 0 0 0 .1-.11 5.2 5.2 0 0 0-.79-2.46c-.87-1.3-2.4-1.93-4.52-1.9-3.43.03-5.4 1.6-5.37 4.18a3.81 3.81 0 0 0 .44 1.78.11.11 0 0 0 .09 0zm-.82 4a1.17 1.17 0 0 1 .6 1c0 .94-.93 1.5-2.47 1.53-1.8 0-2.66-.63-2.76-2.08a.11.11 0 0 0-.1-.1h-2.8a.11.11 0 0 0-.1.11c.1 2.92 2.2 4.58 5.75 4.54s5.58-1.75 5.55-4.52a4.34 4.34 0 0 0-.05-.53z"/></svg>