<svg xmlns="http://www.w3.org/2000/svg" viewBox="0 0 24 24"><path d="M17.923 8.584C11.094 1.6 5.12 8.766 4.14 10.63c-.05.096.074.19.156.12C6.803 8.607 9.7 5.275 16.553 9.923c.052.036.063.113.018.158l-1.748 1.748a.1.1 0 0 0 .07.171H19.9a.1.1 0 0 0 .1-.1V6.893c0-.09-.108-.134-.17-.07l-1.765 1.765c-.038.04-.102.037-.14-.003zM7.43 14.642l1.748-1.748c.063-.063.018-.17-.07-.17H4.1a.1.1 0 0 0-.1.1v5.007c0 .09.108.134.17.07l1.765-1.765c.04-.04.103-.036.14.003 6.855 7.016 12.85-.844 13.794-2.776.048-.097-.077-.2-.16-.118-2.508 2.193-5.394 6.202-12.264 1.556-.053-.036-.063-.114-.018-.16z"/></svg>