<svg xmlns="http://www.w3.org/2000/svg" viewBox="0 0 24 24"><path d="M9.763 13.407L9.05 15.68a.1.1 0 0 1-.095.07h-2.72a.1.1 0 0 1-.094-.133l4.125-11.8a.1.1 0 0 1 .094-.067h3.223c.044 0 .082.028.095.07l3.753 11.8a.1.1 0 0 1-.095.13H14.5c-.045 0-.085-.03-.097-.074l-.6-2.265a.1.1 0 0 0-.097-.074H9.86c-.044 0-.083.03-.096.07zm2.044-6.653l-1.315 4.24c-.02.064.028.13.096.13h2.453a.1.1 0 0 0 .097-.126L12 6.758c-.028-.097-.165-.1-.194-.004zM20.9 21H3.1a.1.1 0 0 1-.1-.1v-2.8a.1.1 0 0 1 .1-.1h17.8a.1.1 0 0 1 .1.1v2.8a.1.1 0 0 1-.1.1z"/></svg>