<svg xmlns="http://www.w3.org/2000/svg" viewBox="0 0 24 24"><path d="M3.1 11h7.8a.1.1 0 0 0 .1-.1V9.1a.1.1 0 0 0-.1-.1H3.1a.1.1 0 0 0-.1.1v1.8a.1.1 0 0 0 .1.1zm0-4h7.8a.1.1 0 0 0 .1-.1V5.1a.1.1 0 0 0-.1-.1H3.1a.1.1 0 0 0-.1.1v1.8a.1.1 0 0 0 .1.1zm0 8h7.8a.1.1 0 0 0 .1-.1v-1.8a.1.1 0 0 0-.1-.1H3.1a.1.1 0 0 0-.1.1v1.8a.1.1 0 0 0 .1.1zm0 4h7.8a.1.1 0 0 0 .1-.1v-1.8a.1.1 0 0 0-.1-.1H3.1a.1.1 0 0 0-.1.1v1.8a.1.1 0 0 0 .1.1zm10-12h7.8a.1.1 0 0 0 .1-.1V5.1a.1.1 0 0 0-.1-.1h-7.8a.1.1 0 0 0-.1.1v1.8a.1.1 0 0 0 .1.1zm0 4h7.8a.1.1 0 0 0 .1-.1V9.1a.1.1 0 0 0-.1-.1h-7.8a.1.1 0 0 0-.1.1v1.8a.1.1 0 0 0 .1.1zm0 8h7.8a.1.1 0 0 0 .1-.1v-1.8a.1.1 0 0 0-.1-.1h-7.8a.1.1 0 0 0-.1.1v1.8a.1.1 0 0 0 .1.1zm0-4h7.8a.1.1 0 0 0 .1-.1v-1.8a.1.1 0 0 0-.1-.1h-7.8a.1.1 0 0 0-.1.1v1.8a.1.1 0 0 0 .1.1z"/></svg>