<svg xmlns="http://www.w3.org/2000/svg" viewBox="0 0 24 24"><path d="M9.687 14.337l-.968-1.85a.1.1 0 0 1 .018-.117l2.38-2.38a.1.1 0 0 1 .121-.016L13.02 11a.1.1 0 0 0 .121-.016l1.763-1.763c.048-.048.035-.128-.025-.16L5.17 4.034a.1.1 0 0 0-.117.018L3.05 6.055c-.03.03-.038.076-.02.114l4.793 9.94a.1.1 0 0 0 .161.027l1.684-1.683c.03-.03.038-.078.018-.116zM6 6.942l3.314 1.912a.1.1 0 0 1 .021.157l-1.512 1.512a.1.1 0 0 1-.159-.024L5.852 7.076c-.047-.09.05-.184.138-.134zm9.524.23l1.88 1.88a.1.1 0 0 1 0 .141L6.878 19.707a.1.1 0 0 0 0 .141L8.15 21.12a.1.1 0 0 0 .141 0l10.515-10.515a.1.1 0 0 1 .141 0l1.88 1.88c.064.063.172.02.172-.07V7.1a.1.1 0 0 0-.1-.1h-5.315a.1.1 0 0 0-.071.171z"/></svg>