<svg xmlns="http://www.w3.org/2000/svg" viewBox="0 0 24 24"><path d="M6 18.9V5.1a.1.1 0 0 0-.1-.1H4.1a.1.1 0 0 0-.1.1v13.8a.1.1 0 0 0 .1.1h1.8a.1.1 0 0 0 .1-.1zm14 0V5.1a.1.1 0 0 0-.1-.1h-1.8a.1.1 0 0 0-.1.1v13.8a.1.1 0 0 0 .1.1h1.8a.1.1 0 0 0 .1-.1zM17 11c0-4-3.02-4.98-4-5-.36-.008-5.158-.001-5.903 0C7.042 6 7 6.045 7 6.1v1.8a.1.1 0 0 0 .1.1H13c.917 0 2 1 2 3 0 3-2.003 3-2.003 3H11.1a.1.1 0 0 1-.1-.1v-2.66c0-.09-.108-.134-.17-.07l-3.76 3.76a.1.1 0 0 0 0 .141l3.76 3.76a.1.1 0 0 0 .171-.07V16.1a.1.1 0 0 1 .1-.1h1.886S17 16 17 11z"/></svg>