<svg xmlns="http://www.w3.org/2000/svg" viewBox="0 0 24 24"><path d="M19.93 11.93l-3.76-3.76a.1.1 0 0 0-.17.071v2.66a.1.1 0 0 1-.1.1H8.1a.1.1 0 0 0-.1.1v1.8a.1.1 0 0 0 .1.1h7.8a.1.1 0 0 1 .1.1v2.66c0 .09.108.134.17.07l3.76-3.76c.038-.04.038-.103-.001-.142zM5.9 5H4.1a.1.1 0 0 0-.1.1v13.8a.1.1 0 0 0 .1.1h1.8a.1.1 0 0 0 .1-.1V5.1a.1.1 0 0 0-.1-.1zm6.2 4h1.8a.1.1 0 0 0 .1-.1V5.1a.1.1 0 0 0-.1-.1h-1.8a.1.1 0 0 0-.1.1v3.8a.1.1 0 0 0 .1.1zm1.8 6h-1.8a.1.1 0 0 0-.1.1v3.8a.1.1 0 0 0 .1.1h1.8a.1.1 0 0 0 .1-.1v-3.8a.1.1 0 0 0-.1-.1z"/></svg>