<svg xmlns="http://www.w3.org/2000/svg" viewBox="0 0 24 24"><path d="M6.6 11.5h6.8a.1.1 0 0 0 .1-.1V9.6a.1.1 0 0 0-.1-.1H6.6a.1.1 0 0 0-.1.1v1.8a.1.1 0 0 0 .1.1zm9.355 2.54c-.033-.033-.037-.083-.01-.122C16.6 12.925 17 11.755 17 10.5 17 6.916 13.86 4 10 4s-7 2.916-7 6.5S6.14 17 10 17c1.696 0 3.25-.566 4.464-1.502.04-.03.093-.027.127.008l4.88 4.88a.1.1 0 0 0 .141 0l1.273-1.273a.1.1 0 0 0 0-.141l-4.93-4.932zM10 15.375c-2.895 0-5.25-2.187-5.25-4.875S7.105 5.625 10 5.625s5.25 2.187 5.25 4.875-2.355 4.875-5.25 4.875z"/></svg>